# xmcd
#
# Track frame offsets: 
#        150
#        24414
#        42293
#        61355
#        78358
#        92822
#        110409
#        124191
#        140050
#        155308
#        177753
#        193905
#        210424
#        228975
#
# Disc length: 3260 seconds
#
# Revision: 0
# Processed by: cddbd v1.5.2PL0 Copyright (c) Steve Scherf et al.
# Submitted via: ExactAudioCopy v1.3
#
DISCID=b90cba0e
DTITLE=First Aid Kit - Ruins
DYEAR=2018
DGENRE=Country
TTITLE0=Rebel Heart
TTITLE1=It's A Shame
TTITLE2=Firework
TTITLE3=Postcard
TTITLE4=To Live A Life
TTITLE5=My Wild Sweet Love
TTITLE6=Distant Star
TTITLE7=Ruins
TTITLE8=Hem Of Her Dress
TTITLE9=Nothing Has to Be True
TTITLE10=America (Bonus)
TTITLE11=My Silver Lining (Stockholm Session) (Bonus)
TTITLE12=Stay Gold (Stockholm Session) (Bonus)
TTITLE13=Brother (Bonus)
EXTD=
EXTT0=
EXTT1=
EXTT2=
EXTT3=
EXTT4=
EXTT5=
EXTT6=
EXTT7=
EXTT8=
EXTT9=
EXTT10=
EXTT11=
EXTT12=
EXTT13=
PLAYORDER=
